<svg xmlns="http://www.w3.org/2000/svg" xmlns:xlink="http://www.w3.org/1999/xlink" width="33px" height="36px" viewBox="0 0 33 36" version="1.1" class="svg replaced-svg">
    <g id="Page-1" stroke="none" stroke-width="1" fill="none" fill-rule="evenodd">
        <g id="landing" transform="translate(-250.000000, -50.000000)" fill-rule="nonzero">
            <g id="s1">
                <g id="logo" transform="translate(250.000000, 50.000000)">
                    <g id="Group-12">
                        <path d="M21.52425,21.2336757 C26.6838971,19.4516757 29.7349412,15.6838378 29.7349412,10.998973 C29.7344559,4.93881081 24.6864265,0 17.6414118,0 L1.05357353,0 C0.443558824,0 7.10542736e-15,0.45827027 7.10542736e-15,0.967621622 L3.81926471,7.28172973 L16.9197794,7.28172973 C19.1943529,7.28172973 21.1360147,8.75772973 21.1360147,11.1512432 C21.1360147,13.5447568 19.1943529,15.2245946 16.9197794,15.2245946 L8.62464706,15.2245946 L12.5370882,21.6914595 L19.9155,35.1861081 C20.0261471,35.3894595 20.3595441,35.6438919 20.8026176,35.6438919 L28.1810294,35.6438919 C29.1239559,35.6438919 29.5126765,34.8285405 29.1239559,34.1674054 L21.52425,21.2336757 Z" id="Path" fill="#EEEEEE"></path>
                        <path d="M24.4641618,21.2336757 C29.6238088,19.4516757 32.6748529,15.6838378 32.6748529,10.998973 C32.6748529,4.93881081 27.6268235,0 20.5813235,0 L3.99348529,0 C3.38395588,0 2.94039706,0.45827027 2.94039706,0.967621622 L6.75966176,7.28172973 L19.8601765,7.28172973 C22.13475,7.28172973 24.0764118,8.75772973 24.0764118,11.1512432 C24.0764118,13.5447568 22.13475,15.2245946 19.8601765,15.2245946 L11.5650441,15.2245946 L15.4774853,21.6914595 L22.8558971,35.1861081 C22.9665441,35.3894595 23.2999412,35.6438919 23.7430147,35.6438919 L31.1214265,35.6438919 C32.0643529,35.6438919 32.4530735,34.8285405 32.0643529,34.1674054 L24.4641618,21.2336757 Z" id="Path" fill="#FFFFFF"></path>
                        <g id="Group" transform="translate(-0.000000, 15.081081)" fill="#EEEEEE">
                            <path d="M12.4463382,18.4806486 L12.4463382,12.3985946 L11.80575,11.2660541 L11.80575,11.8401081 C11.80575,11.9048108 11.7543088,11.9558919 11.6897647,11.9568649 L10.7575147,11.9597838 C10.7264559,11.9597838 10.6963676,11.9485946 10.6755,11.9267027 C10.6531765,11.9048108 10.6405588,11.8746486 10.6405588,11.844 L10.6405588,10.6608649 C10.6405588,10.6297297 10.6531765,10.5981081 10.6769559,10.5781622 C10.6992794,10.5552973 10.7293676,10.5441081 10.7618824,10.5450811 L11.4126618,10.5698919 L10.8662206,9.6047027 L10.7478088,9.59497297 C10.6881176,9.58913514 10.6405588,9.53902703 10.6405588,9.4787027 L10.6405588,9.20578378 L9.39869118,7.01027027 L8.66977941,6.89108108 C8.61397059,6.88281081 8.57126471,6.83367568 8.57126471,6.77627027 L8.57126471,5.54691892 L7.65357353,3.924 L7.65357353,3.95659459 C7.65357353,3.99259459 7.63804412,4.02664865 7.60892647,4.04854054 C7.58805882,4.06459459 7.56185294,4.07383784 7.53710294,4.07383784 C7.52788235,4.07383784 7.51817647,4.07237838 7.50944118,4.07043243 L6.26757353,3.76491892 C6.21564706,3.75178378 6.17925,3.70410811 6.17925,3.65108108 L6.17925,2.28259459 C6.17925,2.24610811 6.19526471,2.21156757 6.22486765,2.18967568 C6.25495588,2.16778378 6.29135294,2.16097297 6.32677941,2.1707027 L6.72617647,2.28502703 L5.61630882,0.323513514 C5.61630882,0.323513514 5.53477941,0.296756757 5.46004412,0.309891892 C5.36880882,0.324 5.30329412,0.372162162 5.30329412,0.372162162 L0.147529412,4.05875676 C0.0548382353,4.12443243 0,4.22951351 0,4.34432432 L0,17.4327568 C0,17.5602162 0.0703676471,17.6779459 0.181985294,17.7387568 L5.34017647,20.573027 C5.34017647,20.573027 5.39404412,20.6041622 5.46732353,20.6138919 C5.54011765,20.6216757 5.5935,20.6061081 5.5935,20.6061081 L12.4463382,18.8726708 C12.4463382,18.6359713 12.4463382,18.5052973 12.4463382,18.4806486 Z M4.02454412,2.9087027 C4.02454412,2.86881081 4.04638235,2.83086486 4.07938235,2.80994595 L4.61757353,2.47427027 C4.653,2.45189189 4.69910294,2.44994595 4.73598529,2.47086486 C4.77238235,2.49178378 4.79519118,2.5307027 4.79519118,2.57254054 L4.79519118,3.89967568 L4.79616176,3.89967568 C4.79616176,3.94297297 4.77238235,3.98237838 4.73404412,4.00232432 L4.19633824,4.29032432 C4.17935294,4.29956757 4.16091176,4.30394595 4.14198529,4.30394595 C4.12111765,4.30394595 4.10025,4.29810811 4.08132353,4.28740541 C4.04686765,4.266 4.02454412,4.22805405 4.02454412,4.18718919 L4.02454412,2.9087027 L4.02454412,2.9087027 Z M2.62447059,3.78389189 C2.62447059,3.74448649 2.64533824,3.70654054 2.67930882,3.68513514 L3.11413235,3.41318919 C3.15101471,3.39081081 3.19566176,3.38935135 3.23254412,3.41027027 C3.26942647,3.4307027 3.29223529,3.47010811 3.29223529,3.51243243 L3.29223529,4.70237838 L3.29223529,4.70237838 C3.29223529,4.74567568 3.26845588,4.78508108 3.23060294,4.80502703 L2.79577941,5.03756757 C2.77830882,5.0472973 2.76035294,5.05118919 2.74094118,5.05118919 C2.72007353,5.05118919 2.69920588,5.04535135 2.68125,5.03513514 C2.64630882,5.01324324 2.62447059,4.97578378 2.62447059,4.93540541 L2.62447059,3.78389189 Z M3.29272059,5.8932973 L3.29272059,7.08275676 C3.29272059,7.13286486 3.26214706,7.17616216 3.21507353,7.19318919 L2.78073529,7.34740541 C2.76714706,7.3512973 2.75355882,7.35421622 2.74045588,7.35421622 C2.71716176,7.35421622 2.69435294,7.34643243 2.67348529,7.33281081 C2.64291176,7.31043243 2.62447059,7.27540541 2.62447059,7.23745946 L2.62447059,6.08691892 C2.62447059,6.04021622 2.65116176,5.99837838 2.69435294,5.97989189 L3.12917647,5.78675676 C3.16460294,5.77118919 3.20730882,5.77459459 3.24030882,5.79551351 C3.27282353,5.81691892 3.29272059,5.85340541 3.29272059,5.8932973 Z M2.62447059,8.38848649 C2.62447059,8.33545946 2.65989706,8.28972973 2.71182353,8.27610811 L3.14664706,8.16081081 C3.18158824,8.15156757 3.21847059,8.15886486 3.24710294,8.18172973 C3.27573529,8.20410811 3.29223529,8.23767568 3.29223529,8.27416216 L3.29223529,9.46362162 L3.29272059,9.46362162 C3.29272059,9.52005405 3.25147059,9.56918919 3.19663235,9.57794595 L2.76132353,9.65383784 C2.75404412,9.6552973 2.74870588,9.65578378 2.74094118,9.65578378 C2.71473529,9.65578378 2.68755882,9.64605405 2.66717647,9.62805405 C2.64,9.60567568 2.62495588,9.57405405 2.62495588,9.53902703 L2.62495588,8.38848649 L2.62447059,8.38848649 Z M0.517808824,5.10032432 C0.517808824,5.05945946 0.538676471,5.022 0.572647059,5.00108108 L0.873529412,4.81232432 C0.909441176,4.79043243 0.955058824,4.78897297 0.991941176,4.80989189 C1.02882353,4.83081081 1.05211765,4.86924324 1.05211765,4.91156757 L1.05211765,5.90010811 L1.05211765,5.90010811 C1.05211765,5.94340541 1.02833824,5.98183784 0.990970588,6.00227027 L0.689602941,6.16378378 C0.672617647,6.17351351 0.654176471,6.17740541 0.63525,6.17740541 C0.614382353,6.17740541 0.593029412,6.17108108 0.574588235,6.16037838 C0.540132353,6.13945946 0.518294118,6.102 0.518294118,6.06113514 L0.518294118,5.10032432 L0.517808824,5.10032432 Z M1.05260294,6.88767568 L1.05260294,7.87524324 C1.05260294,7.92437838 1.02202941,7.96913514 0.974955882,7.98616216 L0.673102941,8.09221622 C0.661455882,8.09708108 0.648838235,8.09902703 0.63525,8.09902703 C0.610985294,8.09902703 0.587691176,8.09124324 0.568764706,8.07810811 C0.537705882,8.05621622 0.518294118,8.0207027 0.518294118,7.98275676 L0.518294118,7.02145946 C0.518294118,6.97524324 0.546441176,6.93389189 0.588176471,6.91443243 L0.890029412,6.78113514 C0.925455882,6.76459459 0.967191176,6.768 1.00067647,6.79037838 C1.03319118,6.81178378 1.05260294,6.84875676 1.05260294,6.88767568 Z M0.517808824,8.94259459 C0.517808824,8.88956757 0.553235294,8.84383784 0.604676471,8.83021622 L0.906044118,8.74994595 C0.940985294,8.7407027 0.978352941,8.74897297 1.0065,8.77135135 C1.03561765,8.79324324 1.05211765,8.82681081 1.05211765,8.8632973 L1.05211765,9.85135135 L1.05260294,9.85135135 C1.05260294,9.90827027 1.01183824,9.95691892 0.956514706,9.96616216 L0.655147059,10.0182162 C0.647867647,10.0191892 0.642044118,10.0201622 0.63525,10.0201622 C0.607102941,10.0201622 0.581382353,10.0104324 0.560514706,9.99243243 C0.533823529,9.97054054 0.518294118,9.93843243 0.518294118,9.90291892 L0.518294118,8.94259459 L0.517808824,8.94259459 Z M1.00261765,15.8740541 C0.983691176,15.8871892 0.959911765,15.894973 0.936617647,15.894973 C0.923029412,15.894973 0.908955882,15.893027 0.895367647,15.8871892 L0.594,15.7767568 C0.548867647,15.7597297 0.517808824,15.714973 0.517808824,15.6663243 L0.517808824,14.7064865 C0.517808824,14.6704865 0.535764706,14.6359459 0.563911765,14.6135676 C0.593029412,14.5907027 0.631367647,14.5838919 0.666308824,14.5945946 L0.967191176,14.6782703 C1.01717647,14.6914054 1.05260294,14.7390811 1.05260294,14.7901622 L1.05260294,15.7782162 L1.05260294,15.7782162 C1.05260294,15.8171351 1.03416176,15.8521622 1.00261765,15.8740541 Z M1.01038235,13.8930811 C0.989029412,13.9091351 0.962823529,13.9198378 0.936617647,13.9198378 C0.928852941,13.9198378 0.922544118,13.9188649 0.914779412,13.9169189 L0.613897059,13.86 C0.558573529,13.8502703 0.518294118,13.8021081 0.518294118,13.7461622 L0.518294118,12.7853514 C0.518294118,12.7522703 0.531882353,12.7206486 0.557602941,12.6987568 C0.581382353,12.6758919 0.613897059,12.6656757 0.646897059,12.6681081 L0.948264706,12.6987568 C1.00698529,12.7045946 1.05308824,12.7537297 1.05308824,12.8145405 L1.05308824,13.8025946 L1.05308824,13.8025946 C1.05260294,13.8371351 1.03804412,13.8702162 1.01038235,13.8930811 Z M1.05308824,11.8264865 L1.05308824,11.8264865 C1.05260294,11.8576216 1.04047059,11.8882703 1.01863235,11.9101622 C0.996308824,11.9320541 0.967676471,11.9432432 0.937102941,11.9432432 C0.936617647,11.9432432 0.936617647,11.9432432 0.936617647,11.9432432 L0.634279412,11.9412973 C0.570705882,11.9412973 0.518294118,11.8882703 0.518294118,11.8245405 L0.518294118,10.8637297 C0.518294118,10.8029189 0.565367647,10.7523243 0.626029412,10.7479459 L0.926911765,10.7221622 C0.959426471,10.7192432 0.991941176,10.7309189 1.01620588,10.7528108 C1.04047059,10.7756757 1.05357353,10.8058378 1.05357353,10.8384324 L1.05357353,11.8264865 L1.05308824,11.8264865 Z M2.01882353,16.2486486 C1.99941176,16.2617838 1.97514706,16.2705405 1.95185294,16.2705405 C1.93826471,16.2705405 1.92467647,16.2676216 1.91157353,16.2617838 L1.55342647,16.1299459 C1.50780882,16.1129189 1.47675,16.0701081 1.47675,16.0204865 L1.47675,14.9735676 C1.47675,14.9375676 1.49373529,14.903027 1.52285294,14.8806486 C1.551,14.8587568 1.58885294,14.8519459 1.62476471,14.8616757 L1.98291176,14.9614054 C2.03338235,14.9745405 2.06929412,15.0212432 2.06929412,15.0732973 L2.06929412,16.1528108 L2.06929412,16.1528108 C2.06929412,16.1917297 2.05036765,16.2267568 2.01882353,16.2486486 Z M2.06929412,13.9937838 C2.06929412,14.0288108 2.05327941,14.0614054 2.02658824,14.0842703 C2.00523529,14.1012973 1.97902941,14.112 1.95185294,14.112 C1.94457353,14.112 1.93826471,14.1100541 1.93098529,14.1090811 L1.57186765,14.0414595 C1.51702941,14.0312432 1.47723529,13.9825946 1.47723529,13.9266486 L1.47723529,12.8797297 C1.47723529,12.8466486 1.49033824,12.815027 1.51508824,12.7931351 C1.54032353,12.7712432 1.57283824,12.761027 1.60535294,12.7624865 L1.96447059,12.7975135 C2.02416176,12.8043243 2.06977941,12.8534595 2.06977941,12.9142703 L2.06977941,13.9937838 L2.06929412,13.9937838 Z M2.06929412,11.8352432 C2.06929412,11.8663784 2.05764706,11.8960541 2.03435294,11.9179459 C2.013,11.9398378 1.98339706,11.952 1.95233824,11.952 C1.95233824,11.952 1.95185294,11.952 1.95136765,11.952 L1.59370588,11.9490811 C1.52916176,11.9490811 1.47723529,11.8960541 1.47723529,11.8323243 L1.47723529,10.7854054 C1.47723529,10.7245946 1.52333824,10.6735135 1.58448529,10.6686486 L1.94360294,10.638973 C1.97514706,10.6360541 2.00717647,10.6467568 2.03192647,10.6696216 C2.05667647,10.6915135 2.06977941,10.7226486 2.06977941,10.7552432 L2.06977941,11.8352432 L2.06929412,11.8352432 Z M2.06929412,9.67572973 C2.06929412,9.73264865 2.02755882,9.78081081 1.97272059,9.79054054 L1.61360294,9.8532973 C1.60680882,9.85427027 1.6005,9.85524324 1.59370588,9.85524324 C1.56652941,9.85524324 1.53983824,9.84502703 1.518,9.82751351 C1.49179412,9.80464865 1.47723529,9.77254054 1.47723529,9.73702703 L1.47723529,8.69010811 C1.47723529,8.63659459 1.51217647,8.59086486 1.56361765,8.57675676 L1.92273529,8.48286486 C1.95767647,8.47313514 1.99455882,8.48043243 2.02319118,8.5032973 C2.05182353,8.52518919 2.06880882,8.55924324 2.06880882,8.59572973 L2.06880882,9.67524324 L2.06929412,9.67572973 L2.06929412,9.67572973 Z M2.06929412,7.51621622 C2.06929412,7.56583784 2.03823529,7.60913514 1.99164706,7.62616216 L1.63204412,7.75362162 C1.61942647,7.75848649 1.60680882,7.76043243 1.59370588,7.76043243 C1.56895588,7.76043243 1.54614706,7.75313514 1.52673529,7.73902703 C1.49616176,7.71713514 1.47675,7.68162162 1.47675,7.64367568 L1.47675,6.59675676 C1.47675,6.55005405 1.50344118,6.50772973 1.54663235,6.48924324 L1.90526471,6.33016216 C1.94117647,6.31459459 1.98291176,6.31751351 2.01639706,6.33843243 C2.04939706,6.36032432 2.06929412,6.39778378 2.06929412,6.4367027 L2.06929412,7.51621622 L2.06929412,7.51621622 Z M2.06929412,5.35767568 C2.06929412,5.40048649 2.04551471,5.44037838 2.00669118,5.46032432 L1.64902941,5.652 C1.63107353,5.66172973 1.61263235,5.66562162 1.59467647,5.66562162 C1.57283824,5.66562162 1.55197059,5.65978378 1.53401471,5.64908108 C1.49907353,5.62767568 1.47723529,5.59021622 1.47723529,5.54983784 L1.47723529,4.50243243 C1.47723529,4.46205405 1.49810294,4.42459459 1.53207353,4.40318919 L1.89119118,4.17891892 C1.92710294,4.15654054 1.97175,4.15508108 2.00911765,4.17551351 C2.046,4.19643243 2.06929412,4.23535135 2.06929412,4.27767568 L2.06929412,5.35767568 L2.06929412,5.35767568 Z M3.24370588,16.7010811 C3.22332353,16.7142162 3.20002941,16.722 3.17722059,16.722 C3.16314706,16.722 3.14955882,16.7190811 3.13645588,16.7142162 L2.70163235,16.5546486 C2.65601471,16.5376216 2.62544118,16.4928649 2.62544118,16.4442162 L2.62544118,15.2936757 C2.62544118,15.2576757 2.64291176,15.2226486 2.67057353,15.2007568 C2.70017647,15.1788649 2.73802941,15.1710811 2.77297059,15.1817838 L3.20779412,15.3024324 C3.25777941,15.3155676 3.29272059,15.3622703 3.29272059,15.4152973 L3.29272059,16.6047568 L3.29320588,16.6047568 C3.29272059,16.6427027 3.27379412,16.6791892 3.24370588,16.7010811 Z M3.2505,14.3138919 C3.22914706,14.3309189 3.20342647,14.3406486 3.17673529,14.3406486 C3.16945588,14.3406486 3.16217647,14.3406486 3.15441176,14.3387027 L2.71958824,14.256973 C2.66475,14.2467568 2.62495588,14.1990811 2.62495588,14.1421622 L2.62495588,12.9916216 C2.62495588,12.9595135 2.63854412,12.9269189 2.66280882,12.905027 C2.68755882,12.8831351 2.72007353,12.8719459 2.75210294,12.8753514 L3.18741176,12.9181622 C3.24758824,12.924 3.29272059,12.9741081 3.29272059,13.0339459 L3.29272059,14.2243784 L3.29320588,14.2243784 C3.29272059,14.2589189 3.27767647,14.291027 3.2505,14.3138919 Z M3.29272059,11.8435135 L3.29272059,11.8435135 L3.29272059,11.8435135 C3.29272059,11.8746486 3.28058824,11.9052973 3.25826471,11.9262162 C3.23691176,11.9490811 3.20779412,11.9602703 3.17722059,11.9602703 C3.17673529,11.9602703 3.17576471,11.9602703 3.17527941,11.9602703 L2.74045588,11.9563784 C2.67736765,11.9554054 2.62544118,11.9043243 2.62544118,11.8396216 L2.62544118,10.6890811 C2.62544118,10.6282703 2.67202941,10.5776757 2.73269118,10.5732973 L3.16751471,10.5372973 C3.19954412,10.5334054 3.23205882,10.5450811 3.25583824,10.5679459 C3.27961765,10.5898378 3.29272059,10.620973 3.29272059,10.6535676 L3.29272059,11.8435135 L3.29272059,11.8435135 Z M4.74666176,17.2547027 C4.72676471,17.2688108 4.70347059,17.2765946 4.68017647,17.2765946 C4.66610294,17.2765946 4.653,17.2736757 4.63989706,17.2688108 L4.10219118,17.0703243 C4.05560294,17.0532973 4.02551471,17.0095135 4.02551471,16.9598919 L4.02551471,15.6828649 C4.02551471,15.6468649 4.0425,15.6123243 4.07113235,15.5899459 C4.10073529,15.5680541 4.13761765,15.5612432 4.17304412,15.570973 L4.71026471,15.7212973 C4.76073529,15.7344324 4.79567647,15.7811351 4.79567647,15.8331892 L4.79567647,17.1588649 L4.79664706,17.1588649 C4.79664706,17.1968108 4.77820588,17.2328108 4.74666176,17.2547027 Z M4.75442647,14.5960541 C4.73355882,14.6140541 4.70686765,14.6237838 4.68017647,14.6237838 C4.67289706,14.6237838 4.66561765,14.6228108 4.65882353,14.6218378 L4.12014706,14.5201622 C4.06530882,14.5104324 4.02454412,14.4622703 4.02454412,14.4053514 L4.02454412,13.1283243 C4.02454412,13.0952432 4.03958824,13.0636216 4.06385294,13.0417297 C4.08811765,13.0198378 4.12111765,13.0096216 4.15363235,13.0120541 L4.69085294,13.0641081 C4.75054412,13.0709189 4.79567647,13.121027 4.79567647,13.1808649 L4.79567647,14.5075135 L4.79664706,14.5075135 C4.79664706,14.5420541 4.78111765,14.5751351 4.75442647,14.5960541 Z M4.79664706,11.8561622 C4.79664706,11.8868108 4.785,11.916973 4.76219118,11.9388649 C4.74035294,11.9607568 4.71075,11.9719459 4.68066176,11.9719459 L4.68017647,11.9719459 L4.14247059,11.9680541 C4.07792647,11.9670811 4.026,11.916 4.026,11.8512973 L4.026,10.5732973 C4.026,10.5124865 4.07210294,10.4618919 4.13373529,10.4565405 L4.67095588,10.4127568 C4.70395588,10.4098378 4.7355,10.4215135 4.75976471,10.4434054 C4.78305882,10.4652973 4.79713235,10.4964324 4.79713235,10.529027 L4.79713235,11.8561622 L4.79664706,11.8561622 Z M4.69958824,9.31864865 L4.16236765,9.41059459 C4.15557353,9.41205405 4.14926471,9.41302703 4.14247059,9.41302703 C4.11480882,9.41302703 4.08860294,9.40378378 4.06773529,9.3852973 C4.04055882,9.36291892 4.026,9.33032432 4.026,9.29627027 L4.026,8.01875676 C4.026,7.96572973 4.06094118,7.91951351 4.11286765,7.90589189 L4.65057353,7.76481081 C4.68502941,7.75556757 4.72239706,7.76286486 4.75102941,7.78475676 C4.77966176,7.80713514 4.79616176,7.84118919 4.79616176,7.87718919 L4.79616176,9.20237838 L4.79713235,9.20237838 C4.79664706,9.25978378 4.75636765,9.30843243 4.69958824,9.31864865 Z M4.79664706,6.55151351 C4.79664706,6.60113514 4.76558824,6.64540541 4.719,6.66194595 L4.18080882,6.85264865 C4.16819118,6.85654054 4.15460294,6.85945946 4.14247059,6.85945946 C4.11869118,6.85945946 4.09442647,6.85167568 4.0755,6.83756757 C4.04444118,6.81567568 4.02551471,6.78064865 4.02551471,6.7427027 L4.02551471,5.4647027 C4.02551471,5.41897297 4.05317647,5.37664865 4.09442647,5.35816216 L4.63261765,5.11978378 C4.66901471,5.10324324 4.71026471,5.10664865 4.74375,5.12805405 C4.77675,5.14994595 4.79616176,5.18643243 4.79616176,5.22632432 L4.79616176,6.55151351 L4.79664706,6.55151351 Z M6.17876471,5.01908108 C6.17876471,4.98356757 6.19429412,4.95048649 6.22195588,4.92762162 C6.24864706,4.90572973 6.28407353,4.89697297 6.31901471,4.90378378 L7.56088235,5.15724324 C7.61475,5.16891892 7.65357353,5.21659459 7.65357353,5.27205405 L7.65357353,6.58848649 C7.65357353,6.62302703 7.63852941,6.65513514 7.61183824,6.67751351 C7.59097059,6.69502703 7.56427941,6.70524324 7.53710294,6.70524324 C7.53030882,6.70524324 7.52497059,6.70524324 7.51817647,6.70475676 L6.27679412,6.50140541 C6.21952941,6.49264865 6.17876471,6.444 6.17876471,6.38659459 L6.17876471,5.01908108 Z M7.65357353,7.90540541 L7.65357353,9.22135135 C7.65357353,9.25394595 7.64047059,9.28556757 7.61620588,9.30745946 C7.59388235,9.32740541 7.56573529,9.33859459 7.53710294,9.33859459 C7.53419118,9.33859459 7.53127941,9.33762162 7.52788235,9.33762162 L6.2865,9.23886486 C6.22535294,9.23351351 6.17925,9.18389189 6.17925,9.12210811 L6.17925,7.75410811 C6.17925,7.72102703 6.19332353,7.68891892 6.21807353,7.66702703 C6.24379412,7.64416216 6.27630882,7.63443243 6.30930882,7.63832432 L7.55069118,7.78913514 C7.60989706,7.79691892 7.65357353,7.84702703 7.65357353,7.90540541 Z M7.557,17.2347568 L6.31416176,17.4458919 C6.30833824,17.4468649 6.30202941,17.4478378 6.29523529,17.4478378 C6.26854412,17.4478378 6.24136765,17.4381081 6.21952941,17.4201081 C6.19380882,17.3972432 6.17876471,17.3661081 6.17876471,17.3305946 L6.17876471,15.9621081 C6.17876471,15.9042162 6.22244118,15.8545946 6.27970588,15.8472973 L7.52254412,15.6877297 C7.55505882,15.6828649 7.58854412,15.6945405 7.61377941,15.7154595 C7.6395,15.7383243 7.65260294,15.7694595 7.65260294,15.804 L7.65260294,17.1199459 L7.65357353,17.1199459 C7.65357353,17.1758919 7.61232353,17.2255135 7.557,17.2347568 Z M7.54777941,14.6028649 L6.30591176,14.7113514 C6.30202941,14.7113514 6.29911765,14.7113514 6.29572059,14.7113514 C6.26708824,14.7113514 6.23894118,14.7011351 6.21710294,14.6807027 C6.19332353,14.6578378 6.17925,14.6267027 6.17925,14.5941081 L6.17925,13.2372973 C6.17925,13.1745405 6.22875,13.1234595 6.29038235,13.1205405 L7.53225,13.0636216 C7.56379412,13.0626486 7.59436765,13.0738378 7.61766176,13.0957297 C7.64095588,13.1176216 7.65405882,13.1487568 7.65405882,13.1803784 L7.65405882,14.4870811 L7.65405882,14.4870811 C7.65357353,14.5478919 7.60795588,14.598 7.54777941,14.6028649 Z M7.65357353,11.8542162 L7.65357353,11.8542162 C7.65357353,11.9189189 7.60164706,11.970973 7.53710294,11.970973 L6.29572059,11.9768108 C6.29523529,11.9768108 6.29523529,11.9768108 6.29523529,11.9768108 C6.26417647,11.9768108 6.23505882,11.9636757 6.21273529,11.9427568 C6.19089706,11.9208649 6.17973529,11.8907027 6.17973529,11.861027 L6.17973529,10.4920541 C6.17973529,10.4609189 6.19283824,10.4302703 6.21467647,10.4074054 C6.23797059,10.3855135 6.26854412,10.3743243 6.29960294,10.3752973 L7.54195588,10.422973 C7.60455882,10.4249189 7.65357353,10.476 7.65357353,10.5387568 L7.65357353,11.8542162 L7.65357353,11.8542162 Z M9.77819118,16.8577297 L8.70763235,17.0391892 C8.70083824,17.0401622 8.69501471,17.0411351 8.68822059,17.0411351 C8.66152941,17.0411351 8.63483824,17.0314054 8.61397059,17.0134054 C8.58776471,16.9915135 8.57126471,16.9594054 8.57126471,16.9248649 L8.57126471,15.6556216 C8.57126471,15.5967568 8.61494118,15.5471351 8.67366176,15.5408108 L9.74325,15.4031351 C9.77673529,15.3982703 9.81022059,15.4099459 9.83545588,15.4308649 C9.86020588,15.4537297 9.87525419,15.4848649 9.87525419,15.5184324 L9.87525419,16.7434054 L9.87525419,16.7434054 C9.87573529,16.7998378 9.834,16.847027 9.77819118,16.8577297 Z M9.76945588,14.4111892 L8.69889706,14.5031351 C8.6955,14.5041081 8.69210294,14.5041081 8.68870588,14.5041081 C8.65910294,14.5041081 8.63144118,14.4938919 8.61008824,14.4734595 C8.58630882,14.4515676 8.57223529,14.4194595 8.57223529,14.3868649 L8.57223529,13.1195676 C8.57223529,13.0568108 8.62173529,13.0057297 8.68385294,13.0028108 L9.75344118,12.9541622 C9.78498529,12.9512432 9.81652941,12.9643784 9.83982353,12.9862703 C9.86263235,13.0081622 9.8752538,13.0383243 9.8752538,13.0699459 L9.8752538,14.2949189 L9.8752538,14.2949189 C9.87573529,14.3547568 9.82963235,14.4053514 9.76945588,14.4111892 Z M9.75877941,11.9631892 L8.68870588,11.9670811 L8.68822059,11.9670811 C8.65764706,11.9670811 8.62804412,11.9558919 8.60620588,11.934 C8.58388235,11.9121081 8.57126471,11.8819459 8.57126471,11.8512973 L8.57126471,10.5820541 C8.57126471,10.5509189 8.58436765,10.5202703 8.60717647,10.4983784 C8.62998529,10.4764865 8.66152941,10.4643243 8.69307353,10.4662703 L9.76266176,10.5061622 C9.82575,10.5100541 9.87525334,10.5601622 9.87525334,10.6238919 L9.87525334,11.8469189 L9.87525334,11.8469189 C9.87573529,11.9111351 9.82332353,11.9631892 9.75877941,11.9631892 Z M9.83836765,9.48405405 C9.81604412,9.504 9.78789706,9.5147027 9.75877941,9.5147027 C9.75586765,9.5147027 9.75198529,9.5147027 9.74907353,9.51421622 L8.679,9.42859459 C8.61833824,9.42421622 8.57077941,9.37362162 8.57077941,9.31281081 L8.57077941,8.04551351 C8.57077941,8.01243243 8.58582353,7.98032432 8.61154412,7.95745946 C8.63629412,7.93508108 8.66880882,7.92486486 8.70180882,7.92924324 L9.77188235,8.05962162 C9.83157353,8.06691892 9.87526257,8.11605405 9.87526257,8.17540541 L9.87526257,9.39891892 L9.87526257,9.39891892 C9.87573529,9.43151351 9.86214706,9.46216216 9.83836765,9.48405405 Z M11.7086912,16.5298378 L10.7769265,16.6874595 C10.7691618,16.6894054 10.7638235,16.6903784 10.7570294,16.6903784 C10.7298529,16.6903784 10.7036471,16.6801622 10.6813235,16.6626486 C10.6551176,16.6397838 10.6405588,16.6076757 10.6405588,16.5731351 L10.6405588,15.39 C10.6405588,15.3311351 10.6842353,15.2815135 10.7419853,15.2742162 L11.6747206,15.1555135 C11.7077206,15.1506486 11.7412059,15.1613514 11.7659559,15.1832432 C11.7907059,15.2051351 11.80575,15.2372432 11.80575,15.2708108 L11.80575,16.415027 L11.80575,16.415027 C11.80575,16.4719459 11.7645,16.5201081 11.7086912,16.5298378 Z M11.6989853,14.2438378 L10.7672206,14.3236216 C10.7633382,14.3245946 10.7594559,14.3245946 10.7570294,14.3245946 C10.7274265,14.3245946 10.6992794,14.3143784 10.6774412,14.2939459 C10.6536618,14.2720541 10.6405588,14.2409189 10.6405588,14.2083243 L10.6405588,13.0261622 C10.6405588,12.9634054 10.6890882,12.9113514 10.7516912,12.9094054 L11.6849118,12.8675676 C11.7154853,12.8656216 11.7470294,12.8772973 11.7693529,12.8987027 C11.7936176,12.9205946 11.8062353,12.9507568 11.8062353,12.9833514 L11.8062353,14.1275676 L11.8062353,14.1275676 C11.80575,14.1878919 11.7596471,14.238 11.6989853,14.2438378 Z" id="Shape"></path>
                        </g>
                    </g>
                </g>
            </g>
        </g>
    </g>
</svg>
